<svg id="CM" xmlns="http://www.w3.org/2000/svg" viewBox="0 0 400 580"><defs><style>.cm{fill:#f09c42;}</style></defs><title>cm_wireframe</title><path class="cm" d="M380.37,86.38l.1.1a88.31,88.31,0,0,0-13.23-15.65h0c-2.08-1.81,9.88,9.3-35.89-33.74a98.4,98.4,0,0,0-12.53-9.91h0A123.5,123.5,0,0,0,283.76,11.5h0a214.63,214.63,0,0,0-45.43-7.32h0l-.59,0h0c-44.14-2.6-86.89,5.51-121.06,33.56h0l-.29.24h0C81.22,67,63,111,53.75,156h0L9.66,371.24h0C1.3,412.1-.81,458.81,22.23,493.33l-.11-.1C33.74,509.64,35,507.59,71.64,543.1A102.71,102.71,0,0,0,84,552.91h0a122.61,122.61,0,0,0,34.91,15.89h0a207.86,207.86,0,0,0,45,7.37h0l.59,0h0c43.86,2.58,86.87-5.31,121.09-33.72h0c.11-.08.4-.32.29-.24h0c35.12-29.29,53.18-73.62,62.43-118.58h0c0-.1.11-.53.09-.43h0l31-151.09-26.42-24.84,30.89,1.88.19.18,0-.17.35,0-.3-.28,8.21-40h0l.08-.43h0C400.58,168.09,403.25,120.76,380.37,86.38ZM285.53,542l-35.61-33.48a150.81,150.81,0,0,0,27.17-30L312.67,512A148.8,148.8,0,0,1,285.53,542ZM116.67,38.2l35.6,33.49A149.4,149.4,0,0,0,125,101.55L89.38,68.09A148.29,148.29,0,0,1,116.67,38.2ZM361,65.47c-2.68-2.1-5.37-3.91-6.31-4.53l0,0L341.75,48.75c-1.46-2-3.4-4.32-4.71-5.8Zm26.75,35.22a106.25,106.25,0,0,1,5.63,16.36L358.05,83.84a106.47,106.47,0,0,0-10.92-27c2,1.13,3.5,2,4.85,2.84C380.77,87.41,380.06,83.22,387.74,100.69Zm10.1,57.67L362.35,125a154.07,154.07,0,0,0-4.12-40.47l35.32,33.21A155.59,155.59,0,0,1,397.84,158.36ZM392,208.15l-35.56-33.44a277.33,277.33,0,0,0,5.9-49.21l35.49,33.37A272,272,0,0,1,392,208.15ZM333.71,472l-35.56-33.44a294.19,294.19,0,0,0,14.2-48.62l35.57,33.44A290.28,290.28,0,0,1,333.71,472Zm-20.82,39.69L277.3,478.19A194.46,194.46,0,0,0,298,438.9l35.57,33.45A198.94,198.94,0,0,1,312.89,511.66Zm-27.65,30.55a137.38,137.38,0,0,1-33.72,20.54L216,529.32a138.73,138.73,0,0,0,33.67-20.59ZM211,574l-35.5-33.38a160.43,160.43,0,0,0,40.09-11.16l35.55,33.43A162.62,162.62,0,0,1,211,574Zm-47.58,1.74A204.69,204.69,0,0,1,119,568.41L83.76,535.27a208.4,208.4,0,0,0,44.2,7.15ZM83.87,552.33,61.73,531.5a78.08,78.08,0,0,1-4.84-7A128.22,128.22,0,0,0,83,535.05h0l35.23,33.13A123.78,123.78,0,0,1,83.87,552.33ZM58.06,527l-5-4.7c.18.11,2,1.19,3.14,1.8C56.55,524.68,58,526.88,58.06,527Zm5.24,6.46L81.81,550.9A92.48,92.48,0,0,1,63.3,533.49Zm-4.27-5c.36.53.75,1,1.12,1.57L49.8,520.29C54.07,523.05,48.65,519.25,59,528.45Zm82.86,14.07c-28.76-.2-60.35-4.92-85.47-18.77C39.12,495.41,35.58,455.49,45.93,405L89.86,190.51h0c2.08-6,11.9-76.74,62.81-118.67C173,55.16,196.78,44.59,225.11,40.35c43.38-6.5,92.31-.14,121.38,16.15C373.71,102,356.83,164.83,356,174.84h0l-8.24,40.21-73.42-4.46,5.71-27.88h0l.09-.43h0c3.33-16.32,3.14-28.68-.54-36.79l.08.08a23.3,23.3,0,0,0-4.94-6.95h0l-35.89-33.75h0a10.68,10.68,0,0,0-1-.92l0,0a25.19,25.19,0,0,0-8.2-4.44h0a43.38,43.38,0,0,0-11-2h0l-.59,0h0c-11.67-.6-21.15,2.76-28.19,10h0l-.26.27h0c-7,7.37-12.35,19.56-15.81,36.25h0l-52,253.75h0c-3.33,16.31-3.18,28.61.42,36.62l-.07-.08c4,7-1.16,1.21,41.78,41.52l0,0a25.07,25.07,0,0,0,8.16,4.38h0a39.91,39.91,0,0,0,11,2h0l.58,0h0c10.85.56,20.88-2.11,28.48-9.81h0l.26-.26h0c7-7.28,12.33-19.41,15.78-36.08h0l.09-.42h0L247,344.44l22.7,21.35,46.67,2.84c-.49,2.42,1.69-8.24-4.3,21h0C292.26,486,239.45,543.22,141.89,542.52ZM4.27,421l35.49,33.37a153.24,153.24,0,0,0,4.32,40.49L8.76,461.69A154.7,154.7,0,0,1,4.27,421ZM89.16,68.4l35.59,33.46A193.14,193.14,0,0,0,104,141L68.42,107.55A196.36,196.36,0,0,1,89.16,68.4ZM191.29,6.31,226.8,39.7a160.88,160.88,0,0,0-40.08,11.1L151.16,17.37A164.36,164.36,0,0,1,191.29,6.31Zm46.87-1.77,35.46,33.35a227.63,227.63,0,0,0-46.35,1.74L191.76,6.24A225.58,225.58,0,0,1,238.16,4.54Zm45.46,7.35L318.86,45a215.35,215.35,0,0,0-44.66-7.11L238.74,4.58A211.49,211.49,0,0,1,283.62,11.89Zm35.26,15.86c24.25,23.31,21.64,19,27.15,28a130.89,130.89,0,0,0-26.39-10.51h0L284.4,12.11A123.65,123.65,0,0,1,318.88,27.75ZM378,83.62l-24.35-22.9A90.53,90.53,0,0,1,378,83.62ZM344.53,52.69l5.91,5.55c-.23-.14-2.08-1.22-3.76-2.14C345.83,54.69,344.6,52.79,344.53,52.69ZM340,47.09l-19.13-18A90.18,90.18,0,0,1,340,47.09Zm12,12.1c-9.19-8.86-7.69-6.88-9.08-8.85l10.1,9.5ZM150.79,17.53,186.35,51a140.07,140.07,0,0,0-33.79,20.48L117,38A139.32,139.32,0,0,1,150.79,17.53Zm47,84.38,35.6,33.47a32.39,32.39,0,0,0-7.67,5.82l-35.6-33.48A31.87,31.87,0,0,1,197.74,101.91ZM341.41,246.22l-22.15-1.34-8.75-8.22,32.46,2Zm-9.07,44.28-3,4.56-22.33-21-6.69,10.53-3.87-17.22-.06-.3-3.88-3.64,12.5-19,14.08.85L338,263ZM270,365.44l5.39-26.32,17.21,16.17,19.84,1.21,1.54-2.42,4.5,4.23-2,9.95Zm-42,69.87L192.4,401.86l34.84-170.09,35.57,33.44-3.55,17.3-13-12.21-12.62,61.63,13,12.21Zm-.09.42a127.79,127.79,0,0,1-4,15L188.3,417.24a125.08,125.08,0,0,0,4-14.95Zm-23.69,42.12-35.59-33.47a31.65,31.65,0,0,0,7.68-5.74l35.6,33.49A30.83,30.83,0,0,1,204.18,477.85Zm-84.29-64.27L155.42,447c0,.3,0,.61-.06.91a49.8,49.8,0,0,1-11.65-.19l-23.54-22.13A60.18,60.18,0,0,1,119.89,413.58ZM122.06,398l35.56,33.44a121.34,121.34,0,0,0-2.17,15L119.92,413.1A120.66,120.66,0,0,1,122.06,398ZM225.41,141.47a43.67,43.67,0,0,0-6.3,8.72L183.5,116.71a43.54,43.54,0,0,1,6.31-8.72Zm8.28-6.27L198.1,101.72a33.76,33.76,0,0,1,9.19-3.18L242.83,132A32.73,32.73,0,0,0,233.69,135.2Zm12.5-3.39a123.26,123.26,0,0,1-2.3,16.86h0L231.73,208l-.35,0,.3.28,0,.11h.14l26.29,24.72L227,231.21,192,401.89c-4.68,22.86-13.17,43.36-36.28,46,.77-13.19-.57-.66,54.11-269.43h0c.82-2.71,4.23-24.68,16-36.85A32.65,32.65,0,0,1,246.19,131.81ZM279.86,182,244.3,148.54a119.09,119.09,0,0,0,2.16-15L282,166.9A117.45,117.45,0,0,1,279.86,182ZM183.26,481.8l-27.55-25.9a65.17,65.17,0,0,1,0-7.66c.93-.1,1.92-.24,2.85-.41l35.54,33.42A46.23,46.23,0,0,1,183.26,481.8Zm-25.33-14.93,13.46,12.65C165.09,477.22,160.41,473.18,157.93,466.87Zm-2.6-18.59a70.17,70.17,0,0,0,0,7.25l-7.52-7.07A49.41,49.41,0,0,0,155.33,448.28Zm-21.09-2.58c.77.32,1.53.58,1.95.72h0l21.12,19.86c.07.21.48,1.28.7,1.78Zm2.77,1a41.43,41.43,0,0,0,6.54,1.38l12.15,11.42a35.85,35.85,0,0,0,1.35,6Zm18.61,12.22-11.45-10.77c.76.1,1.67.2,3.05.28l8.13,7.65C155.41,456.94,155.51,458,155.62,458.91Zm-22.4-13.65L158.45,469a26.74,26.74,0,0,0,1.66,2.76l-29.86-28.08A28.54,28.54,0,0,0,133.22,445.26ZM159,447.74a33.43,33.43,0,0,0,9.24-3.18L203.83,478a34.18,34.18,0,0,1-9.28,3.13ZM259.1,233.53l1.09.07.28,1.22Zm43.57,63.17,6.41,28.54-10.28-9.66Zm0-1.78-2.2-9.82,6.22-9.79Zm-.18.89-4,19.47-10.77-10.13,12.45-19.6ZM267.38,265.6l6,26.55,13.89,13.06-3.48,5.48-1.3-6.37-22.87-21.51,3.58-17.47Zm3,68.3-13.09-12.31,19.08,1.16,1.66,1.56-2,9.93Zm8.06-9.72,1.33-6.5,3.82-6,4.4,21.5Zm1.54-7.53,2.32-11.31,1.19,5.8Zm-.77,1.91-1.09,5.32-1.43-1.35Zm-25.06-9.14,2.46,12,13.18,12.4-20.39-1.24Zm24.2,15.19,9.77,9.18.24,1.2-12-.73Zm10.24,9.62.87.83-.71-.05Zm-6.49-29.75-2.68,13.06-3.07,4.83-19.41-1.18-2.6-12.69,5.17-25.26Zm-11.3,29.82,5.12.31-.77,3.78Zm23.66,1.43,19.23,18.09-1.4,2.2-21.82-20.53Zm-4.42-.64-1.58-1.49-4.58-22.39,3.65-5.74,10.88,10.24-4,19.65Zm-2.59-30.2L273.75,292l16.44-25,5.89.35,4,17.69Zm3-38.26,1.89-2.89,3.41,3.21ZM273.6,291.58l-5.83-26,22,1.34Zm-19.47,16-7.43-36.36,12.48,11.73Zm-7.73-36,7.54,36.9L249,332.6l-14.91-.91Zm46.4,83.33-4-19.54,1.06.07,21.95,20.63ZM227.63,231.62l30.89,1.88,2.09,2,6.68,29.75-4.2-.25Zm6.73,100.46,14.57.89-2.2,10.74Zm14.94.91,20.9,1.27,4.84,4.56-5.41,26.42L247,344Zm26.15,5.7.83-4.06,12.14.74,3.92,19.2Zm38.7,15.07,7.72-12.15-3.34,16.27Zm-4.67-28.43-6.63-29.52,4.32-21.09,22,20.65Zm-17.23-62.16L270,242.26l34.57,2.1Zm-.21.31-2,3.12-22.32-1.35-6.58-29.33,6.59,6.2,1.74.11ZM268,241.77l.15-.76.87.82Zm-.34-.2-6.7-6.3-.29-1.29,7.17,6.74Zm-7.15-8.32h-.08l-1.74-.1-26.29-24.73,41.54,2.53-6,29.35ZM243.86,112.93,230.3,100.17C236.64,102.51,241.34,106.62,243.86,112.93Zm-.07-1.15,23.6,22.2c-.11,0-1-.41-1.9-.71h0l-21-19.75C244.38,113.22,243.94,112.12,243.79,111.78Zm24.61,22.64-25.06-23.57a23.27,23.27,0,0,0-1.71-2.82l29.81,28A26.89,26.89,0,0,0,268.4,134.42ZM264.67,133a43.24,43.24,0,0,0-6.64-1.41l-11.86-11.15a37.29,37.29,0,0,0-1.41-6.16Zm-7.26-1.48c-.68-.08-1.57-.18-3-.27l-7.93-7.46c-.07-1-.17-1.93-.28-2.77Zm-3.54-.3a47.28,47.28,0,0,0-7.28.18,69.49,69.49,0,0,0,0-7.06ZM232.11,208,244.21,149l35.56,33.44L274,210.57ZM282,166.41,246.49,133c0-.41.06-.82.08-1.22a47.54,47.54,0,0,1,11.31.18l23.81,22.4A59.32,59.32,0,0,1,282,166.41Zm-23.5-34.35a33.39,33.39,0,0,1,9.68,2.68l10.72,10.08a30.65,30.65,0,0,1,2.7,9Zm10.85,3.26a21.25,21.25,0,0,1,8.95,8.42ZM229.44,99.88l14.72,13.84a37.17,37.17,0,0,1,2,9.69L219,97.92A41,41,0,0,1,229.44,99.88Zm-10.52,50.65a75,75,0,0,0-5.17,11.83L178.17,128.9a72.2,72.2,0,0,1,5.15-11.85ZM178,129.29l35.59,33.46a126.45,126.45,0,0,0-4,15l-35.56-33.44A128.34,128.34,0,0,1,178,129.29Zm31.49,48.85L157.71,431,122.15,397.6,174,144.7ZM143.06,447.61a34.78,34.78,0,0,1-9.64-2.68L122.87,435a30.22,30.22,0,0,1-2.62-8.86Zm-10.8-3.25a20.85,20.85,0,0,1-8.8-8.28Zm40,35.45-14.6-13.73a36.31,36.31,0,0,1-1.88-9.63l26.9,25.3A41.3,41.3,0,0,1,172.24,479.81Zm4.29-41.44a42.93,42.93,0,0,0,6.29-8.63l35.6,33.48a43.17,43.17,0,0,1-6.29,8.64Zm6.48-9a72.8,72.8,0,0,0,5.16-11.78l35.58,33.46a72.29,72.29,0,0,1-5.14,11.79Zm135.76-70.8,11.13,10.47-13.12-.8Zm3.87-18.91,8.66-42.29,11.4,10.72Zm-.56.88-8.21,12.92-19.15-18,4-19.48,10.72,10.07s14.79-22.53,20-30.45l1.57,1.48Zm7.54-45.26,2.52-3.84-1.07,5.2Zm-9.94-50,21.65,1.31-3.27,16ZM310,236.73l8.64,8.11L305.25,244ZM218.41,97.87,246.16,124a63.47,63.47,0,0,1,.05,7.46c-1,.11-2,.26-2.93.44L207.74,98.45A45.66,45.66,0,0,1,218.41,97.87ZM330.28,368.93l-11.43-10.75,3.58-17.45,20.12-31.68Zm2.61-79.28,5.4-26.36,7.36,6.92Zm10.42-50.83,8.55,8-10.08-.61Zm.11-.54-33.5-2h0L304.83,244l-35.24-2.14-1.36-1.27L274.3,211l73.57,4.47,35.46,33.34-30.89-1.88ZM68.27,107.92l35.57,33.44a289.25,289.25,0,0,0-14.21,48.42L54.07,156.34A285.58,285.58,0,0,1,68.27,107.92ZM54,156.77l35.56,33.44L45.63,404.56,10.07,371.11ZM45.54,405a270.07,270.07,0,0,0-5.77,48.93L4.28,420.54a266.82,266.82,0,0,1,5.7-49l17.78,16.72ZM8.94,462.37l35.32,33.21c2.9,10.3,5.94,18.55,11.51,27.81-5.19-2.91-1.08.46-32.34-28.93C15.25,482.17,11.94,473.67,8.94,462.37Zm40.94,57.48a92.94,92.94,0,0,1-25.26-23.76Zm-7.76-5c1.41,1.11,3.88,2.91,6,4.32v0c22,21.14,9.26,8.37,17.83,18ZM164,575.8l-35.46-33.35A228.45,228.45,0,0,0,175,540.7l35.5,33.39A227.39,227.39,0,0,1,164,575.8ZM348,422.92l-35.56-33.44,4.27-20.83,13.84.84,12.63-61.42L331.39,297l1.3-6.34L346,270.37l32.86,2ZM378.57,272,346,270l-7.59-7.14,3.33-16.24,10.57.64Zm5.14-23.36-35.56-33.44,8.2-40,35.57,33.44Z"/></svg>