<?xml version="1.0" encoding="utf-8"?>
<svg id="CM" xmlns="http://www.w3.org/2000/svg" viewBox="0 0 400 580"><defs><style>.cm{fill:#f09c42;}</style></defs><title>cm_wireframe</title><path class="cm"  d="M396.1,64.3c-0.1-0.1-0.1-0.2-0.2-0.3l-13.4-27.9c-0.3-1.3-0.9-2.6-1.7-3.7c-1.7-2.4-4.4-3.9-7.4-4.3L190.4,5
	c-17.2-2.2-34.5-1-51.4,3.4c-16.3,4.3-31.6,11.5-45.4,21.4C79.8,39.7,68.1,51.7,59,65.6C49.5,80,43.1,95.8,40,112.4L5.4,298.7
	c-5.2,27.9-0.6,55.6,12.9,79.5l8.7,18c3.6,8.9,8.3,17.5,14.1,25.4c9.6,13.1,21.6,24,35.8,32.3c14.7,8.6,31,14.1,48.4,16.3l57.3,7.2
	c0.5,0.1,1,0.1,1.5,0.1c5.7,0,10.7-4.1,11.8-9.5l30.5-164.4l16.1,21.4c1.7,2.3,4.4,3.8,7.4,4.2c2.5,0.3,4.9-0.2,7.1-1.3l-8.8,47.4
	c-0.5,2.9,0.1,5.7,1.8,8c0.1,0.1,0.1,0.2,0.2,0.3l13.4,27.9c0.3,1.3,0.9,2.6,1.7,3.7c1.7,2.4,4.4,3.9,7.4,4.3l48,6.1
	c6.2,0.8,12.1-3.5,13.2-9.5l33.8-181.7c0.5-2.9-0.1-5.7-1.8-8c-0.1-0.1-0.1-0.2-0.2-0.3l-13.4-27.9c-0.3-1.3-0.9-2.6-1.7-3.7
	c-1.7-2.4-4.4-3.9-7.4-4.3l-54.4-6.9c-3-0.4-6,0.4-8.5,2.2l-12.4,8.9l-42.9-57.3c-1.8-2.3-4.4-3.8-7.4-4.2l-40.4-5.1
	c-6.2-0.8-12.1,3.5-13.2,9.5l-43.2,232.4c-11.7-1.9-22.1-7.1-30.1-15c-0.5-5-0.3-10.1,0.7-15.1l34.6-186.2c5.7-30.4,35.8-52,67.3-48
	l93,11.7c3.4,0.4,6.6,1.4,9.6,2.8c-0.2,2.4,0.4,4.7,1.9,6.7c0.1,0.1,0.2,0.2,0.2,0.3l13.5,28c0.3,1.3,0.9,2.5,1.7,3.7
	c1.7,2.4,4.5,4,7.5,4.4l48,6.1c6.2,0.8,12.1-3.5,13.2-9.4l16.2-87.1C398.4,69.5,397.8,66.7,396.1,64.3z M162.8,108.5l-15-31.3
	c9.3-3.7,19.6-5.2,30-3.9l0.1,0l15,31.1C182.4,103.3,172.1,104.8,162.8,108.5z M138.5,125.7l-15-31.2c6.4-7.5,14.7-13.5,24-17.2
	l15,31.3C153.2,112.3,144.9,118.3,138.5,125.7z M177.1,128.6l15,31.2c-1.9-0.2-3.7,0.1-5.4,0.8l-15-31.3
	C173.3,128.6,175.1,128.4,177.1,128.6L177.1,128.6z M288.8,184.2l15,31.2c-0.9-0.1-1.7-0.1-2.6,0l-15-31.2
	C287,184.1,287.8,184.1,288.8,184.2L288.8,184.2z M190.4,5.8l15,31.1c-17.1-2.1-34.2-0.9-51,3.5c-5.4,1.4-10.8,3.2-15.9,5.3
	l-15-31.2c15.7-6.3,32.7-9.7,50.3-9.7C179.2,4.7,184.8,5.1,190.4,5.8L190.4,5.8z M368.5,168.2l-15-31.2c1.9,0.2,3.7-0.1,5.4-0.8
	l15,31.3C372.3,168.2,370.4,168.4,368.5,168.2L368.5,168.2z M320.4,162.1l-8-16.6c0.1-5-1.1-9.8-3.5-14.1l44.2,5.6c0,0,0.1,0,0.1,0
	l12.8,26.6l2.2,4.5L320.4,162.1C320.5,162.1,320.5,162.1,320.4,162.1z M193.1,104.5l-12.8-26.6l-2.2-4.5l92.6,11.7c0,0,0.1,0,0.1,0
	l12.7,26.4l2.3,4.8L193.1,104.5C193.2,104.5,193.2,104.5,193.1,104.5z M171.4,129.4l15,31.3c-1.7,0.7-3.2,1.8-4.4,3.1l-15-31.2
	C168.2,131.1,169.7,130.1,171.4,129.4z M217.6,133.7l12.6,26.2l2.4,4.9l-40-5.1c0,0-0.1,0-0.1,0l-12.7-26.4l-2.3-4.8L217.6,133.7
	C217.5,133.7,217.5,133.7,217.6,133.7z M343.2,191.1l7.6,15.9l-2.6,14l-44.1-5.6c0,0-0.1,0-0.1,0l-12.6-26.2l-2.4-4.9L343.2,191.1
	C343.1,191.1,343.1,191.1,343.2,191.1z M320.7,425l-15-31.2c1.9,0.2,3.7-0.1,5.4-0.8l15,31.3C324.5,425,322.7,425.3,320.7,425
	L320.7,425z M125.4,469.5C125.4,469.5,125.3,469.5,125.4,469.5l-12.9-26.6l-2.2-4.5l56.9,7.2c0,0,0.1,0,0.1,0L180,472l2.3,4.8
	L125.4,469.5z M6.2,298.8l34.5-185.5l7.4,15.4l7.4,15.4c0,0.1,0,0.2-0.1,0.3L20.9,329.9l-7.4-15.4l-7.4-15.4
	C6.1,299,6.1,298.9,6.2,298.8z M373.3,28.9l5.6,11.7l2,4.2l-2.6,14L205.8,37c0,0-0.1,0-0.1,0L193,10.4l-2.2-4.6L373.3,28.9
	C373.2,28.8,373.3,28.9,373.3,28.9z M296.4,120.2c0.1,0.1,0.2,0.1,0.4,0.2l0.3,0.6l3.6,7.5c-1-0.6-1.8-1.4-2.5-2.4
	C296.9,124.4,296.3,122.3,296.4,120.2z M89.8,353.9c-1.9-1.9-3.6-4-5.2-6.2c-8.1-11.4-11.2-25.3-8.8-39.3l8,16.6l6.8,14.1l-0.1,0.3
	C89.6,344.3,89.4,349.2,89.8,353.9z M121,370.5l8.9,18.5l6.1,12.6c-10-1.6-19.1-5.7-26.5-11.8l-14.6-30.4
	C102.3,365.2,111.2,369,121,370.5L121,370.5z M89.9,355.1c0.4,3.6,1.1,7.1,2.2,10.5l-9-18.8c0.3,0.5,0.6,0.9,0.9,1.4
	C85.7,350.6,87.7,352.9,89.9,355.1z M109.8,121.2L75.1,307.5c-2.4,13.1-0.1,26.2,6.6,37.3l11,22.9c1.6,4.3,3.8,8.5,6.5,12.4
	c8.6,12.1,21.8,20.1,37,22.4l0.1,0l0,0l0,0l0.2,0L180,169.4c1-5.6,6.6-9.6,12.4-8.8l40.4,5.1c2.8,0.4,5.2,1.7,6.8,3.9l43.4,57.9
	l13-9.3c2.3-1.7,5.2-2.4,8-2l44,5.6l-30.2,162.5c-1,5.6-6.6,9.6-12.4,8.8l-37.7-4.8l14.7-79.3l-0.6,0.4l-12.1-25.2l-2.8-5.9l0.1-0.3
	l0.2-0.9l-24.6,17.6c-2.3,1.7-5.2,2.4-8,2c-2.8-0.4-5.2-1.7-6.8-3.9l-17.1-22.8L179.8,436c-1,5.6-6.6,9.5-12.4,8.8l-57.3-7.2
	c-34.4-4.3-64.1-21.5-83.7-48.4c-0.7-0.9-1.3-1.9-2-2.8c-5.3-17.7-6.4-36.6-2.8-55.6l34.6-186.2C67.5,83,124.7,36.7,189,36.7
	c5.5,0,11.1,0.4,16.6,1l172.5,21.8l-12.6,67.9c-1,5.6-6.6,9.6-12.4,8.8l-44.7-5.6c-0.2-0.4-0.4-0.7-0.7-1.1l-12.1-25.1
	c-0.9-2.8-2.3-5.5-4.1-8c-4.9-6.7-12.2-11-20.8-12.1l-93-11.7C146,68.6,115.5,90.4,109.8,121.2z M254.1,386.9c1,0.5,2.1,0.8,3.2,0.9
	l0.1,0l7,14.5l-0.8,4.3l-7.4-15.4L254.1,386.9z M266.9,389l-2.4,12.9l-4.6-9.5l-2.2-4.5L266.9,389z M266.1,278.7l-8.6,46.4l-14.4-30
	L266.1,278.7z M258.1,326.4L258.1,326.4l8.8-47.8l14.8,30.9L258.1,326.4z M361.8,223.2c-1-0.5-2.1-0.8-3.2-0.9l-0.1,0l-7-14.5
	l0.8-4.3l7.4,15.4L361.8,223.2z M355.9,217.7l2.2,4.5L349,221l2.4-12.9L355.9,217.7z M381.5,45.9l6.7,14l-9.1-1.2L381.5,45.9z
	 M382.4,41.2l2.9,6l6.6,13.7c-1-0.5-2.1-0.8-3.2-0.9l-0.1,0l-7-14.5L382.4,41.2z M296.3,106.4l10.3,21.4c-1.6-2.1-3.5-4-5.6-5.6
	l-3.9-8C297.2,111.5,296.9,108.9,296.3,106.4z M300.5,121.8c-1.2-0.9-2.5-1.7-3.9-2.4l-0.1-0.2c0-0.1,0-0.2,0-0.3
	c0.3-1.4,0.4-2.8,0.5-4.2L300.5,121.8z M306.4,128.8c0.4,0.5,0.8,1.1,1.1,1.7l-2.3-0.3c-1.5-0.2-2.9-0.7-4.1-1.4l-3.9-8.1
	C300.8,122.7,303.9,125.4,306.4,128.8z M305.5,131l2.5,0.3c2.2,3.8,3.4,8.1,3.7,12.5l-3.8-8L305.5,131z M392.3,61.1l-4.8-9.9
	l-5-10.5l0.1-0.3c0.1-0.3,0.1-0.6,0.1-0.8l10.6,22.1C393,61.5,392.6,61.3,392.3,61.1z M25.7,389.7c6.7,9.1,14.5,17.1,23.4,24
	l14.6,30.5c-8.3-6.6-15.7-14.2-22.1-22.9c-7.3-10-12.8-20.9-16.6-32.4C25.3,389.1,25.5,389.4,25.7,389.7z M180.4,436.4
	c0-0.1,0-0.2,0.1-0.3l30.5-164.4l0.2,0.3l14.6,30.4l-30.6,164.8l-7.4-15.4L180.4,436.4z M231.9,296.8l14.8,30.9
	c-0.8-0.4-1.5-0.8-2.1-1.4L230,295.8C230.6,296.2,231.2,296.5,231.9,296.8z M240.2,296.7l15,31.3c-0.8,0.3-1.7,0.5-2.5,0.6l-15-31.2
	C238.5,297.3,239.4,297,240.2,296.7z M240.4,296.6c0.8-0.3,1.6-0.8,2.4-1.3l13.4,28l1.1,2.3l-0.3,1.4c-0.5,0.3-1.1,0.6-1.7,0.8
	L240.4,296.6z M315.8,389.9l15,31.2c-1.2,1.4-2.7,2.5-4.4,3.2l-15-31.3C313.1,392.3,314.6,391.2,315.8,389.9z M362.1,223.4
	l-9.8-20.4l0.1-0.3c0.1-0.3,0.1-0.6,0.1-0.8l10.6,22.1C362.8,223.7,362.5,223.5,362.1,223.4z M109,389.5c-3.4-2.9-6.5-6.2-9.1-9.9
	c-5-7.1-8.1-15.2-9.2-23.7c1.2,1.1,2.4,2.2,3.7,3.2L109,389.5z M291,96.8c3.4,4.6,5.2,10.1,5.3,15.7l-10-20.7
	C288.1,93.3,289.7,95,291,96.8z M301.6,129.9c1.1,0.5,2.2,0.9,3.4,1l0.1,0l6.5,13.6c0,1.8-0.1,3.7-0.4,5.5l-3.5-7.2L301.6,129.9z
	 M393.7,62l-11-22.9c0-0.6,0-1.2,0-1.9l12.5,26C394.7,62.8,394.2,62.3,393.7,62z M380.1,32.8c1,1.4,1.6,2.9,1.8,4.6l-2.7-5.7
	C379.5,32.1,379.8,32.4,380.1,32.8z M378.6,31.2l3.3,6.9c0,0.7,0,1.4-0.2,2.2l-0.8,4.1l-6.8-14.2l-0.6-1.3
	C375.5,29.2,377.2,30,378.6,31.2z M13.7,315.6l7.1,14.7l-0.1,0.3c-3.4,18.3-2.6,36.5,2.2,53.7C6.6,359.4,0.6,329.6,6,299.6
	L13.7,315.6z M64.2,444.5L49.6,414c3.8,2.9,7.8,5.6,11.9,8c14.7,8.6,31,14.1,48.4,16.3l0.1,0l14.9,31.1
	C102.1,466.5,81.3,457.9,64.2,444.5z M180.3,436.8l0.3,0.5l14.6,30.3l-0.1,0.3c-0.3,1.8-1.1,3.4-2.2,4.7l-15-31.2
	C179.1,440.1,179.9,438.5,180.3,436.8z M229.5,295.5l14.6,30.3c-0.4-0.4-0.7-0.7-1-1.1l-0.8-1l-14-29.2
	C228.7,294.9,229.1,295.2,229.5,295.5z M232.3,296.9c0.7,0.2,1.5,0.4,2.2,0.5c0,0,0.1,0,0.1,0l14.9,31.1c-0.8-0.1-1.6-0.4-2.4-0.7
	L232.3,296.9z M237.4,297.4l15,31.2c-0.8,0.1-1.6,0.1-2.4,0c0,0-0.1,0-0.1,0l-15-31.1C235.7,297.5,236.5,297.5,237.4,297.4z
	 M248.9,375.6l8.9-48c0.2-0.1,0.4-0.2,0.5-0.3l23.1-16.5L267,388.2l-9.6-1.2c-1.4-0.2-2.7-0.6-3.9-1.3l-4.7-9.8
	C248.8,375.8,248.8,375.7,248.9,375.6z M250.5,383c-1.4-1.9-2-4.3-1.8-6.6l4.4,9.1C252.1,384.8,251.2,384,250.5,383z M264.1,410.4
	l2.7,5.7c-0.3-0.3-0.7-0.7-1-1.1C264.9,413.6,264.3,412,264.1,410.4z M267.4,416.6l-3.3-6.9c0-0.7,0-1.4,0.2-2.2l0.8-4.1l7.4,15.4
	C270.5,418.6,268.8,417.8,267.4,416.6z M316,389.7c1.1-1.3,2-2.9,2.4-4.6l0.6,1.3l14.2,29.6l-0.1,0.3c-0.3,1.8-1.1,3.4-2.2,4.7
	L316,389.7z M367,234.5l-33.6,181l-7.4-15.4l-7.4-15.4c0-0.1,0-0.2,0.1-0.3l30.2-162.6l9.6,1.2c1.4,0.2,2.7,0.6,3.9,1.3l4.7,9.8
	C367,234.2,367,234.3,367,234.5z M365.3,227c1.4,1.9,2,4.3,1.8,6.6l-4.4-9.1C363.7,225.2,364.6,226,365.3,227z M363.5,224.2
	l-11-22.9c0-0.6,0-1.2,0-1.9l12.5,26C364.5,225,364.1,224.6,363.5,224.2z M350,195c1,1.4,1.6,2.9,1.8,4.6l-2.7-5.7
	C349.4,194.3,349.7,194.7,350,195z M348.5,193.4l3.3,6.9c0,0.7,0,1.4-0.2,2.2l-0.8,4.1l-7.4-15.4
	C345.4,191.4,347.1,192.2,348.5,193.4z M298.3,216.1l-15-31.3c0.8-0.3,1.7-0.5,2.5-0.6l15,31.2C300,215.6,299.2,215.8,298.3,216.1z
	 M298.1,216.2c-0.8,0.3-1.6,0.7-2.3,1.3l-15-31.3c0.7-0.5,1.5-0.9,2.3-1.3L298.1,216.2z M295.5,217.6l-12.3,8.8l-0.5-0.7L268,195.3
	l12.5-8.9L295.5,217.6z M267.8,195.4l11,22.9l3,6.3l-41.6-55.5c-0.2-0.3-0.4-0.5-0.6-0.8l-13.7-28.6l41.8,55.8L267.8,195.4z
	 M239.1,167.8c-0.4-0.3-0.8-0.7-1.2-1l-14.5-30.3c0.3,0.3,0.7,0.7,1,1.1l0.8,1L239.1,167.8z M237.5,166.5c-0.6-0.4-1.2-0.7-1.9-1
	l-14.8-30.9c0.8,0.4,1.5,0.8,2.1,1.4L237.5,166.5z M235.2,165.4c-0.7-0.3-1.5-0.4-2.3-0.5l-0.1,0l-14.9-31.1
	c0.9,0.1,1.7,0.4,2.4,0.7L235.2,165.4z M181.8,163.9c-1.1,1.3-2,2.9-2.4,4.6l-7.8-16.2l-7-14.6l0.1-0.3c0.3-1.8,1.1-3.4,2.2-4.7
	L181.8,163.9z M171.9,153.6l7.4,15.4c0,0.1,0,0.2-0.1,0.3l-43.1,232l-1.3-2.7l-13.5-28.1l43.2-232.3L171.9,153.6z M125.1,153.2
	L90.6,338.7l-7.4-15.4l-7.4-15.4c0-0.1,0-0.2,0-0.3l34.5-185.5l7.4,15.4l7.4,15.4C125.2,153,125.1,153.1,125.1,153.2z M118.6,138.6
	l-8.1-16.9l0.1-0.3c1.9-10,6.4-19.1,12.8-26.6l15,31.2c-6.4,7.5-11,16.5-13,26.5L118.6,138.6z M271.2,85.1
	c5.6,0.8,10.6,2.9,14.7,6.3l10.5,21.8c0,1.9-0.2,3.7-0.5,5.6c0,0.1,0,0.2,0,0.3c-2.9-1.4-6.2-2.3-9.6-2.8l-0.1,0l-13.7-28.5
	L271.2,85.1z M301.2,129.7l3.6,7.6l6.3,13.2c0,0.1,0,0.2-0.1,0.3c0,0.2-0.1,0.4-0.1,0.6l-10.6-22.1
	C300.7,129.4,301,129.6,301.2,129.7z M311.9,150.9c0.3-1.6,0.5-3.2,0.5-4.8l7.7,16c-1.9-0.3-3.6-1.1-5-2.3l-3.4-7.1
	C311.7,152.1,311.8,151.5,311.9,150.9z M359.2,136.1c1.7-0.7,3.2-1.8,4.4-3.1l15,31.2c-1.2,1.4-2.7,2.5-4.4,3.2L359.2,136.1z
	 M363.8,132.8c1.1-1.3,2-2.9,2.4-4.6l3.7,7.7l11.1,23.1l-0.1,0.3c-0.3,1.8-1.1,3.4-2.2,4.7L363.8,132.8z M381.1,158.6l-14.8-30.8
	c0-0.1,0-0.2,0.1-0.3L379,59.6l9.6,1.2c1.4,0.2,2.7,0.6,3.9,1.3l4.7,9.8c0,0.1,0,0.2,0,0.3L381.1,158.6z M395.5,64.8
	c1.4,1.9,2,4.3,1.8,6.6l-4.4-9.1C393.9,63,394.8,63.8,395.5,64.8z M138.2,45.8c-10.3,4.1-20.1,9.5-29.2,16
	C99.8,68.3,91.7,75.7,84.6,84L69.6,52.9c14.3-16.7,32.8-30,53.5-38.3L138.2,45.8z M84.4,84.2c-3.6,4.2-7,8.7-10.1,13.3
	c-9.3,14.2-15.7,29.7-18.8,46.1L48.5,129l-7.7-16.1l0.1-0.3C44.9,90.3,55.1,70,69.4,53.1L84.4,84.2z M182.7,476.8L182.7,476.8
	l-15.1-31.2c0.4,0,0.7,0.1,1.1,0.1c1.5,0,3-0.3,4.4-0.8l15,31.3C186.4,476.7,184.6,477,182.7,476.8z M173.4,444.7
	c1.7-0.7,3.2-1.8,4.4-3.1l15,31.2c-1.2,1.4-2.7,2.5-4.4,3.2L173.4,444.7z M225.9,302l-7.9-16.4l-6-12.4l15,20
	c0.2,0.3,0.4,0.5,0.6,0.8l13.7,28.6L226,301.9L225.9,302z M253.7,386.7l9.8,20.4l-0.1,0.3c-0.1,0.3-0.1,0.5-0.1,0.8l-10.6-22.1
	C253,386.3,253.4,386.5,253.7,386.7z M272.8,419C272.8,419,272.7,418.9,272.8,419l-7.7-15.9l2.6-14l37.7,4.8c0,0,0.1,0,0.1,0
	l12.8,26.6l2.2,4.5L272.8,419z M300,129l11,22.8c-0.1,0.7,0,1.3,0,2l-12.6-26.2C298.9,128.1,299.5,128.6,300,129z M314.6,159.3
	c-0.4-0.4-0.8-0.8-1.1-1.3c-1-1.4-1.6-3-1.7-4.6L314.6,159.3z M23.6,386.7c0.6,2.1,1.4,4.3,2.1,6.4l-0.5-0.9L19.9,381
	C21.1,382.9,22.3,384.8,23.6,386.7z M250.8,384.5c0.5,0.5,1,0.9,1.5,1.3l11,22.9c0,0.7,0,1.3,0.1,2l-3.7-7.8L250.8,384.5z"/>
</svg>
