<svg version="1.1" id="Layer_1" xmlns="http://www.w3.org/2000/svg" xmlns:xlink="http://www.w3.org/1999/xlink" x="0px" y="0px"
	 viewBox="0 0 128 128" style="enable-background:new 0 0 128 128;" xml:space="preserve">
<style type="text/css">
	.st0{clip-path:url(#SVGID_1_);fill:#F1D942;}
	.st1{clip-path:url(#SVGID_1_);fill:#2D2D27;}
	.st2{fill:#EF9C41;}
</style>
<g>
	<defs>
		<path id="SVGID_3_" d="M117,128H11c-6.08,0-11-4.92-11-11V11C0,4.92,4.92,0,11,0h106c6.08,0,11,4.92,11,11v106
			C128,123.08,123.08,128,117,128z"/>
	</defs>
	<use xlink:href="#SVGID_3_"  style="overflow:visible;fill:#506458;"/>
	<clipPath id="SVGID_1_">
		<use xlink:href="#SVGID_3_"  style="overflow:visible;"/>
	</clipPath>
	<rect x="15.9" y="-8.87" class="st0" width="15.9" height="144.8"/>
	<rect y="-8.87" class="st1" width="15.9" height="144.8"/>
</g>
<path class="st2" d="M112.17,59.83c-0.34-3.95-5.44-7.17-8.56-3.55c-3.5,4.05-6.76,8.39-10.68,12.05c-2.79,2.6-8.45-8.4-9.58-10.2
	c-2.83-4.48-8.84-2.3-9.35,2.53c-1.64,15.65-0.65,33.95-2.01,43.67c-5.16-1.95-13.55-11.66-13.55-33.17
	c0-18.18,0.2-33.81,14.58-46.53c11.7-10.35,24.9-3.32,27.63,10.6c1.25,6.35,10.91,3.65,9.67-2.67
	c-3.64-18.56-20.17-27.73-37.5-19.71c-23.47,10.87-26.46,42.97-24.2,65.21c2.23,21.9,15.75,42.48,40.16,38.45
	C116.28,111.99,113.99,80.7,112.17,59.83z M90.74,105.43c-2.79,1.12-6.74,1.49-9.66,1.49c1.57-11.36,1.36-24.97,1.36-32.26
	c4.22,3.63,5.6,4.39,9.75,4.39c4.49,0,7.96-3.64,10.85-6.53C103.03,76.69,107.66,98.65,90.74,105.43z"/>
</svg>
