<svg version="1.1" xmlns="http://www.w3.org/2000/svg" xmlns:xlink="http://www.w3.org/1999/xlink" x="0px" y="0px"
	 viewBox="0 0 128 128" style="enable-background:new 0 0 128 128;" xml:space="preserve">
<style type="text/css">
	.cm{fill:#F09C42;}
</style>
<path class="cm" d="M48.6,26.7h40.9c6.6,0,11.9,5.4,11.9,11.9c0,2.3,1.9,4.1,4.1,4.1l18.4,0c2.3,0,4.1-1.9,4.1-4.1V4.1
	c0-2.3-1.9-4.1-4.1-4.1H48.6C21.8,0,0,21.8,0,48.6v30.8C0,106.2,21.8,128,48.6,128h21.9c2.3,0,4.1-1.9,4.1-4.1V93.3l10.4,10.4
	c1.6,1.6,4.2,1.6,5.9,0l10.4-10.4v17.2c0,2.3,1.9,4.1,4.1,4.1h18.4c2.3,0,4.1-1.9,4.1-4.1V68.1c0-2.3-1.9-4.1-4.1-4.1h-1.2h-19.6
	c-1.1,0-2.2,0.4-2.9,1.2L96,69.3L75.9,49.2C75.1,48.4,74,48,72.9,48H52.1c-2.3,0-4.1,1.9-4.1,4.1v49.2c-11.8-0.3-21.3-10-21.3-21.9
	V48.6C26.7,36.5,36.5,26.7,48.6,26.7z"/>
</svg>
