<?xml version="1.0" encoding="utf-8"?>
<svg version="1.1" xmlns="http://www.w3.org/2000/svg" xmlns:xlink="http://www.w3.org/1999/xlink" x="0px" y="0px"
	viewBox="0 0 128 128" style="enable-background:new 0 0 128 128;" xml:space="preserve">
	<g>
		<path d="M68.9,93.5c0,2.7-2.2,4.9-4.9,4.9s-4.9-2.2-4.9-4.9V78.8c0-2.7,2.2-4.9,4.9-4.9s4.9,2.2,4.9,4.9V93.5z"/>
		<path d="M103.4,49.2V29.5c0-2.7-2.2-4.9-4.9-4.9c-2.7,0-4.9-2.2-4.9-4.9s2.2-4.9,4.9-4.9c8.1,0,14.8,6.6,14.8,14.8v19.7
			c0,5.4,4.4,9.8,9.8,9.8c2.7,0,4.9,2.2,4.9,4.9s-2.2,4.9-4.9,4.9c-5.4,0-9.8,4.4-9.8,9.8v19.7c0,8.1-6.6,14.8-14.8,14.8
			c-2.7,0-4.9-2.2-4.9-4.9s2.2-4.9,4.9-4.9c2.7,0,4.9-2.2,4.9-4.9V78.8c0-5.9,2.7-11.2,6.8-14.8C106.1,60.4,103.4,55.1,103.4,49.2z"
			/>
		<circle cx="64" cy="46.8" r="7.4"/>
		<path d="M4.9,59.1c5.4,0,9.8-4.4,9.8-9.8V29.5c0-8.1,6.6-14.8,14.8-14.8c2.7,0,4.9,2.2,4.9,4.9s-2.2,4.9-4.9,4.9
			c-2.7,0-4.9,2.2-4.9,4.9v19.7c0,5.9-2.7,11.2-6.8,14.8c4.1,3.6,6.8,8.9,6.8,14.8v19.7c0,2.7,2.2,4.9,4.9,4.9c2.7,0,4.9,2.2,4.9,4.9
			s-2.2,4.9-4.9,4.9c-8.1,0-14.8-6.6-14.8-14.8V78.8c0-5.4-4.4-9.8-9.8-9.8C2.2,68.9,0,66.7,0,64S2.2,59.1,4.9,59.1z"/>
	</g>
</svg>