<?xml version="1.0" encoding="utf-8"?>
<svg version="1.1" xmlns="http://www.w3.org/2000/svg" xmlns:xlink="http://www.w3.org/1999/xlink" x="0px" y="0px"
		viewBox="0 0 128 128" style="enable-background:new 0 0 128 128;" xml:space="preserve">
	<path d="M29.2,22.7c1.3,0.6,1.7,1.1,2.2,2c2.4,3.4-0.1,5.3-1,6.4c-2.6-6.4-5-7-5-7.9C25.5,23.1,27.9,22.1,29.2,22.7z
		M117.9,98.4c-7-0.2-12.4,0.5-16.9,2.4c-1.3,0.5-3.4,0.5-3.6,2.2c0.7,0.7,0.8,1.8,1.4,2.8c1,1.7,2.9,4.1,4.5,5.3
		c1.8,1.4,3.7,2.8,5.6,4c3.4,2.1,7.2,3.3,10.5,5.4c1.9,1.2,3.8,2.8,5.8,4.1c1,0.7,1.6,1.8,2.8,2.3v-0.3c-0.6-0.8-0.8-1.9-1.4-2.8
		c-0.9-0.9-1.7-1.7-2.6-2.5c-2.5-3.4-5.7-6.4-9.1-8.8c-2.8-1.9-8.9-4.5-10-7.7c0,0-0.1-0.1-0.2-0.2c1.9-0.2,4.2-0.9,6-1.4
		c3-0.8,5.7-0.6,8.7-1.4c1.4-0.4,2.8-0.8,4.2-1.2v-0.8c-1.6-1.6-2.7-3.7-4.4-5.1c-4.4-3.8-9.3-7.6-14.4-10.7
		c-2.7-1.7-6.2-2.9-9.1-4.4c-1-0.5-2.8-0.8-3.4-1.7c-1.6-1.9-2.4-4.4-3.6-6.7c-2.5-4.8-5-10.1-7.1-15.1c-1.6-3.4-2.5-6.8-4.4-9.9
		c-9-14.8-18.7-23.8-33.7-32.6c-3.2-1.8-7.1-2.6-11.1-3.6c-2.2-0.1-4.4-0.3-6.5-0.3c-1.4-0.6-2.8-2.3-4-3.1c-5-3.1-17.8-9.9-21.4-1
		C-1.8,11.3,4,16.9,6,19.7c1.5,2,3.4,4.3,4.4,6.5c0.6,1.5,0.8,3,1.4,4.6c1.4,3.8,2.7,8.1,4.5,11.7c1,1.8,2,3.7,3.2,5.4
		c0.7,1,1.9,1.4,2.2,3c-1.2,1.7-1.3,4.4-2,6.5c-3.1,9.8-1.9,22,2.5,29.3c1.4,2.2,4.7,7,9.1,5.1c3.9-1.6,3-6.5,4.2-10.9
		c0.3-1.1,0.1-1.7,0.6-2.4v0.2c1.2,2.4,2.4,4.8,3.6,7.2c2.7,4.3,7.4,8.7,11.3,11.7c2.1,1.6,3.7,4.3,6.4,5.2v-0.3h-0.2
		c-0.5-0.8-1.3-1.1-2-1.7c-1.6-1.6-3.3-3.5-4.5-5.2c-3.7-4.9-6.9-10.3-9.7-15.8c-1.4-2.7-2.6-5.7-3.7-8.4c-0.5-1-0.5-2.6-1.4-3.1
		c-1.3,1.9-3.2,3.6-4.2,5.9c-1.7,3.7-1.8,8.4-2.4,13.2c-0.3,0.1-0.2,0-0.3,0.2c-2.8-0.7-3.7-3.6-4.8-6c-2.6-6.2-3-16.1-0.8-23.3
		c0.6-1.8,3.2-7.6,2.2-9.3c-0.5-1.7-2.3-2.6-3.2-3.9c-1.1-1.7-2.4-3.7-3.1-5.6c-2.1-4.9-3.1-10.3-5.4-15.1c-1-2.3-2.9-4.6-4.4-6.7
		c-1.7-2.4-3.5-4-4.8-6.8c-0.4-1-1-2.5-0.3-3.6c0.2-0.7,0.5-1,1.2-1.1c1.1-1,4.4,0.3,5.5,0.8c3.2,1.3,5.9,2.5,8.6,4.4
		c1.2,0.9,2.5,2.5,4.1,3h1.8c2.8,0.6,5.9,0.2,8.5,1c4.6,1.5,8.8,3.7,12.5,6C58,28.4,67.4,38.6,73.8,50.9c1,2,1.5,3.8,2.4,5.9
		c1.8,4.3,4.1,8.6,5.9,12.8c1.8,4.1,3.6,8.3,6.2,11.7c1.3,1.8,6.5,2.8,8.9,3.7c1.7,0.8,4.4,1.5,6,2.4c3,1.8,5.9,3.9,8.7,5.9
		C113.3,94.4,117.6,96.6,117.9,98.4"/>
</svg>
